<svg width="128" height="128" viewBox="0 0 128 128" fill="none" xmlns="http://www.w3.org/2000/svg">
<g clip-path="url(#clip0_1730_99)">
<rect width="128" height="128" fill="#252422"/>
<path d="M116 137C127.046 137 136 128.046 136 117C136 105.954 127.046 97 116 97C104.954 97 96 105.954 96 117C96 128.046 104.954 137 116 137Z" fill="#DAD7CD"/>
<path d="M103.646 119.976C103.644 119.985 103.644 119.994 103.644 120.003C103.644 120.012 103.644 120.021 103.646 120.03C103.648 120.04 103.651 120.048 103.655 120.058C103.658 120.063 103.658 120.069 103.661 120.074L106.34 124.716L106.34 124.717C106.342 124.719 106.344 124.72 106.345 124.722C106.357 124.74 106.372 124.757 106.392 124.769C106.412 124.781 106.434 124.785 106.456 124.786C106.459 124.786 106.461 124.788 106.463 124.788L106.464 124.788L111.822 124.786L117.18 124.788C117.187 124.787 117.192 124.784 117.198 124.784C117.208 124.783 117.217 124.781 117.226 124.778C117.235 124.775 117.243 124.771 117.251 124.766C117.259 124.762 117.266 124.757 117.273 124.751C117.281 124.745 117.287 124.738 117.293 124.729C117.296 124.724 117.301 124.721 117.305 124.716L119.984 120.075L122.663 115.435L125.342 110.794C125.344 110.791 125.344 110.788 125.345 110.786C125.348 110.78 125.35 110.775 125.352 110.769C125.354 110.763 125.356 110.756 125.357 110.75C125.358 110.743 125.359 110.737 125.36 110.73C125.36 110.728 125.361 110.725 125.361 110.722C125.361 110.72 125.36 110.717 125.36 110.715C125.359 110.708 125.359 110.702 125.357 110.696C125.356 110.689 125.354 110.683 125.352 110.676C125.35 110.67 125.348 110.665 125.345 110.659C125.343 110.656 125.343 110.653 125.342 110.651L122.661 106.011C122.658 106.005 122.654 106.002 122.65 105.997C122.644 105.989 122.638 105.982 122.63 105.975C122.623 105.969 122.616 105.964 122.607 105.96C122.6 105.955 122.592 105.951 122.584 105.948C122.574 105.945 122.564 105.944 122.554 105.942C122.548 105.942 122.543 105.939 122.537 105.939L117.18 105.939C117.177 105.939 117.174 105.94 117.171 105.941C117.166 105.941 117.16 105.942 117.155 105.943C117.148 105.944 117.141 105.946 117.134 105.948C117.128 105.95 117.123 105.953 117.117 105.955C117.114 105.957 117.111 105.957 117.109 105.958C117.106 105.959 117.105 105.962 117.103 105.963C117.097 105.967 117.092 105.971 117.088 105.975C117.082 105.979 117.078 105.984 117.073 105.989C117.069 105.994 117.065 105.998 117.062 106.004C117.061 106.006 117.058 106.007 117.056 106.01L114.377 110.651L111.739 115.22L106.463 115.218C106.46 115.219 106.457 115.22 106.455 115.22C106.448 115.221 106.443 115.221 106.437 115.223C106.43 115.224 106.424 115.225 106.417 115.228C106.411 115.23 106.406 115.232 106.4 115.235C106.397 115.236 106.394 115.236 106.392 115.238C106.389 115.239 106.388 115.242 106.386 115.243C106.38 115.246 106.375 115.25 106.37 115.255C106.365 115.259 106.361 115.264 106.356 115.269C106.352 115.273 106.349 115.278 106.345 115.283C106.344 115.286 106.341 115.287 106.339 115.29L103.66 119.931C103.657 119.936 103.656 119.942 103.654 119.948C103.651 119.957 103.648 119.966 103.646 119.976ZM122.455 106.225L124.971 110.58L119.941 110.58L117.429 106.225L122.455 106.225ZM109.226 120.147L114.253 120.145L111.739 124.5L106.712 124.502L109.226 120.147ZM119.778 119.861L114.749 119.859L117.263 115.505L122.291 115.507L119.778 119.861ZM122.456 115.221L117.428 115.219L119.941 110.866L124.971 110.866L122.456 115.221ZM114.584 120.145L119.612 120.147L117.098 124.501L112.069 124.5L114.584 120.145ZM111.74 115.506L114.254 119.859L109.226 119.861L106.712 115.505L111.74 115.506Z" fill="#008710"/>
<path d="M122.63 105.975C122.638 105.982 122.644 105.989 122.65 105.997C122.654 106.002 122.658 106.005 122.661 106.011L125.342 110.651C125.343 110.654 125.343 110.656 125.345 110.659C125.348 110.665 125.349 110.67 125.352 110.676C125.354 110.683 125.355 110.689 125.357 110.696C125.358 110.702 125.359 110.708 125.359 110.714C125.36 110.717 125.361 110.72 125.361 110.723C125.361 110.725 125.36 110.728 125.36 110.731C125.359 110.737 125.358 110.743 125.357 110.75C125.356 110.756 125.354 110.763 125.352 110.769C125.35 110.775 125.348 110.78 125.345 110.786C125.344 110.788 125.344 110.792 125.342 110.794L117.305 124.716L117.293 124.729C117.286 124.738 117.281 124.745 117.273 124.751C117.266 124.757 117.259 124.762 117.251 124.766C117.243 124.771 117.235 124.775 117.226 124.778C117.217 124.781 117.208 124.783 117.198 124.784C117.192 124.785 117.187 124.788 117.18 124.788L106.464 124.788L106.463 124.788C106.461 124.788 106.459 124.786 106.456 124.786C106.434 124.785 106.412 124.781 106.392 124.769C106.372 124.757 106.357 124.74 106.345 124.722C106.344 124.72 106.342 124.719 106.341 124.717L106.34 124.716L103.661 120.074C103.658 120.069 103.658 120.063 103.655 120.058C103.651 120.048 103.647 120.04 103.646 120.03C103.644 120.021 103.644 120.012 103.644 120.003L103.646 119.976C103.648 119.967 103.651 119.957 103.654 119.947L103.66 119.931L106.339 115.29C106.341 115.287 106.344 115.286 106.345 115.283C106.349 115.278 106.352 115.273 106.356 115.269C106.361 115.264 106.365 115.259 106.371 115.255C106.375 115.25 106.38 115.246 106.386 115.243C106.388 115.242 106.39 115.239 106.392 115.238C106.394 115.236 106.397 115.236 106.399 115.235C106.405 115.232 106.411 115.23 106.417 115.228C106.424 115.225 106.43 115.224 106.437 115.223C106.443 115.221 106.448 115.221 106.455 115.22L106.463 115.219L111.739 115.22L117.056 106.01C117.058 106.008 117.061 106.006 117.062 106.004C117.066 105.998 117.069 105.994 117.073 105.989C117.078 105.984 117.082 105.979 117.087 105.975C117.092 105.971 117.097 105.967 117.103 105.964C117.105 105.962 117.106 105.96 117.109 105.958C117.111 105.957 117.114 105.957 117.117 105.956C117.123 105.953 117.128 105.95 117.134 105.948C117.141 105.946 117.148 105.944 117.154 105.943C117.16 105.942 117.165 105.941 117.171 105.941L117.18 105.939L122.537 105.939C122.543 105.939 122.548 105.942 122.554 105.942C122.564 105.944 122.574 105.945 122.584 105.948C122.592 105.951 122.6 105.955 122.607 105.96C122.616 105.964 122.623 105.969 122.63 105.975ZM103.949 120.002L106.464 124.359L108.978 120.004L106.464 115.648L106.463 115.647L103.949 120.002ZM109.226 120.147L106.712 124.502L111.739 124.5L114.253 120.145L109.226 120.147ZM114.584 120.145L112.069 124.5L117.098 124.502L119.612 120.147L114.584 120.145ZM106.712 115.505L109.226 119.861L114.254 119.859L111.74 115.507L106.712 115.505ZM117.263 115.505L114.749 119.859L119.778 119.861L122.292 115.507L117.263 115.505ZM119.941 110.866L117.428 115.22L122.456 115.221L124.971 110.866L119.941 110.866ZM117.429 106.225L119.941 110.58L124.971 110.58L122.455 106.225L117.429 106.225ZM111.987 115.362L111.988 115.364L114.501 119.716L119.693 110.723L117.181 106.368L117.18 106.367L111.987 115.362Z" fill="#252422"/>
<path d="M125.343 110.794L125.345 110.786C125.348 110.78 125.35 110.775 125.352 110.769C125.354 110.763 125.356 110.756 125.357 110.75C125.358 110.743 125.359 110.737 125.36 110.73C125.36 110.728 125.361 110.725 125.361 110.722L125.36 110.714C125.359 110.708 125.358 110.702 125.357 110.695L125.352 110.676C125.35 110.67 125.348 110.665 125.345 110.659C125.343 110.656 125.343 110.653 125.342 110.651L122.661 106.011C122.658 106.005 122.654 106.002 122.65 105.997C122.644 105.989 122.638 105.982 122.63 105.975C122.623 105.969 122.616 105.964 122.607 105.96L122.584 105.948C122.574 105.945 122.564 105.943 122.554 105.942C122.548 105.941 122.543 105.939 122.537 105.939L117.18 105.939L117.171 105.941C117.166 105.941 117.16 105.942 117.155 105.943L117.135 105.948C117.128 105.95 117.123 105.953 117.117 105.955L117.109 105.958L117.103 105.963C117.097 105.967 117.092 105.97 117.087 105.975L117.074 105.989L117.062 106.004C117.061 106.006 117.058 106.007 117.056 106.01L111.739 115.22L106.463 115.218L106.455 115.22C106.448 115.221 106.443 115.221 106.437 115.222L106.417 115.228C106.411 115.23 106.405 115.232 106.4 115.235L106.392 115.237C106.39 115.239 106.388 115.241 106.386 115.243C106.38 115.246 106.376 115.25 106.371 115.254C106.366 115.259 106.361 115.264 106.356 115.269C106.352 115.273 106.348 115.278 106.345 115.283C106.344 115.285 106.341 115.287 106.339 115.289L103.66 119.931L103.654 119.947C103.651 119.957 103.648 119.966 103.646 119.976L103.644 120.003C103.644 120.012 103.644 120.021 103.646 120.03C103.647 120.039 103.652 120.048 103.655 120.057C103.658 120.063 103.658 120.069 103.661 120.074L106.34 124.716L106.341 124.717C106.342 124.719 106.344 124.72 106.345 124.722L106.355 124.735C106.361 124.744 106.369 124.752 106.378 124.759L106.392 124.769C106.412 124.781 106.434 124.785 106.456 124.786C106.459 124.786 106.461 124.788 106.463 124.788L106.464 124.788L117.18 124.788L117.198 124.784C117.208 124.783 117.217 124.781 117.226 124.778C117.235 124.775 117.243 124.771 117.251 124.766C117.255 124.764 117.259 124.762 117.263 124.759L117.273 124.751C117.281 124.745 117.287 124.737 117.293 124.729L117.305 124.716L125.343 110.794ZM106.222 124.855C106.223 124.855 106.223 124.856 106.224 124.856C106.224 124.856 106.222 124.855 106.221 124.854C106.221 124.854 106.222 124.854 106.222 124.855ZM106.215 124.848C106.216 124.849 106.217 124.85 106.218 124.851C106.217 124.85 106.216 124.849 106.215 124.848C106.215 124.848 106.215 124.848 106.215 124.848ZM106.439 124.966C106.441 124.966 106.442 124.967 106.444 124.967L106.444 124.967C106.442 124.967 106.441 124.966 106.439 124.966ZM106.464 115.648L108.978 120.004L106.464 124.359L103.949 120.001L106.464 115.646L106.464 115.648ZM111.739 124.5L106.712 124.502L109.226 120.147L114.253 120.145L111.739 124.5ZM104.159 120.002L106.464 123.996L108.769 120.004L106.464 116.009L104.159 120.002ZM109.331 120.329L107.026 124.32L111.634 124.318L113.939 120.327L109.331 120.329ZM117.098 124.501L112.069 124.5L114.584 120.145L119.612 120.146L117.098 124.501ZM114.688 120.326L112.384 124.318L116.993 124.32L119.298 120.328L114.688 120.326ZM114.254 119.859L109.226 119.861L106.712 115.505L111.74 115.506L114.254 119.859ZM107.026 115.686L109.331 119.679L113.939 119.677L111.635 115.688L107.026 115.686ZM106.283 115.094C106.284 115.093 106.285 115.092 106.286 115.092L106.286 115.091C106.285 115.092 106.284 115.093 106.283 115.094ZM106.338 115.064C106.335 115.066 106.33 115.067 106.326 115.07C106.329 115.068 106.334 115.066 106.338 115.064ZM119.778 119.861L114.749 119.859L117.263 115.505L122.292 115.506L119.778 119.861ZM117.181 106.368L119.693 110.723L114.501 119.716L111.988 115.363L111.987 115.362L117.18 106.367L117.181 106.368ZM117.368 115.687L115.063 119.678L119.673 119.679L121.977 115.688L117.368 115.687ZM112.197 115.362L114.501 119.353L119.484 110.723L117.18 106.73L112.197 115.362ZM122.457 115.221L117.428 115.219L119.941 110.866L124.971 110.866L122.457 115.221ZM120.046 111.048L117.742 115.038L122.352 115.039L124.657 111.047L120.046 111.048ZM124.971 110.579L119.941 110.58L117.429 106.225L122.455 106.225L124.971 110.579ZM117.743 106.406L120.046 110.398L124.656 110.398L122.35 106.406L117.743 106.406ZM125.54 110.749C125.54 110.751 125.539 110.753 125.539 110.755C125.539 110.753 125.54 110.751 125.54 110.749L125.54 110.749ZM125.507 110.579C125.509 110.582 125.51 110.586 125.512 110.589C125.51 110.586 125.509 110.582 125.508 110.579L125.507 110.579ZM117.453 124.823L117.44 124.836L117.429 124.85C117.421 124.86 117.408 124.874 117.393 124.888L117.391 124.889L117.39 124.891C117.374 124.904 117.357 124.915 117.34 124.924L117.34 124.925C117.332 124.929 117.312 124.94 117.287 124.949L117.287 124.949C117.287 124.949 117.287 124.949 117.286 124.949C117.286 124.949 117.285 124.95 117.285 124.95L117.285 124.95C117.264 124.957 117.245 124.96 117.231 124.962C117.229 124.963 117.226 124.964 117.223 124.965C117.214 124.966 117.202 124.968 117.188 124.969L117.184 124.969L117.18 124.969L106.464 124.969L106.458 124.969L106.453 124.969L106.452 124.969L106.452 124.968C106.443 124.968 106.435 124.967 106.428 124.965C106.39 124.962 106.346 124.952 106.301 124.926C106.257 124.901 106.226 124.867 106.204 124.837L106.192 124.823L103.504 120.165L103.503 120.164C103.493 120.145 103.487 120.128 103.484 120.118C103.48 120.108 103.474 120.091 103.47 120.073L103.47 120.073C103.469 120.07 103.469 120.066 103.468 120.063C103.468 120.062 103.467 120.06 103.467 120.059L103.467 120.059C103.462 120.029 103.462 120.004 103.463 120.002L103.463 119.997L103.463 119.992L103.464 119.965L103.465 119.95L103.469 119.935C103.472 119.923 103.475 119.912 103.477 119.907C103.478 119.903 103.478 119.903 103.479 119.901C103.479 119.9 103.479 119.899 103.479 119.899C103.479 119.899 103.479 119.898 103.479 119.898L103.481 119.893L103.483 119.888L103.488 119.871L103.494 119.855L106.183 115.198L106.196 115.178C106.199 115.175 106.201 115.172 106.203 115.169C106.208 115.163 106.215 115.155 106.222 115.147C106.223 115.146 106.223 115.146 106.223 115.145C106.224 115.145 106.224 115.144 106.224 115.144C106.23 115.138 106.238 115.129 106.249 115.12C106.25 115.119 106.252 115.117 106.254 115.115C106.259 115.111 106.265 115.106 106.272 115.101C106.272 115.101 106.273 115.1 106.273 115.1C106.28 115.094 106.291 115.085 106.307 115.077L106.309 115.076C106.322 115.069 106.334 115.065 106.342 115.063L106.342 115.063C106.346 115.061 106.351 115.059 106.356 115.057L106.356 115.057C106.371 115.051 106.385 115.048 106.401 115.045C106.411 115.043 106.42 115.041 106.428 115.04L106.446 115.037L106.463 115.037L111.635 115.038L116.899 105.919C116.907 105.906 116.915 105.896 116.921 105.889C116.927 105.881 116.934 105.873 116.94 105.866C116.944 105.862 116.953 105.852 116.965 105.841C116.973 105.833 116.981 105.827 116.99 105.82C116.996 105.815 117.005 105.809 117.015 105.803L117.019 105.8L117.024 105.797C117.031 105.793 117.038 105.79 117.044 105.788C117.047 105.787 117.049 105.786 117.052 105.785C117.058 105.783 117.065 105.78 117.073 105.778L117.073 105.777C117.092 105.77 117.109 105.767 117.123 105.764L117.123 105.764C117.128 105.763 117.133 105.763 117.139 105.762L117.148 105.76L117.164 105.757L117.18 105.757L122.537 105.757L122.539 105.757L122.54 105.757C122.559 105.758 122.576 105.761 122.585 105.763C122.596 105.765 122.619 105.768 122.642 105.776L122.643 105.777C122.666 105.784 122.684 105.795 122.693 105.8C122.694 105.8 122.695 105.801 122.696 105.802C122.697 105.802 122.698 105.802 122.698 105.803C122.704 105.806 122.711 105.81 122.718 105.815L122.748 105.837L122.749 105.838C122.767 105.853 122.78 105.869 122.788 105.88C122.795 105.887 122.808 105.9 122.819 105.92L122.819 105.92L125.499 110.56L125.502 110.565L125.504 110.57C125.511 110.583 125.515 110.594 125.517 110.601C125.52 110.608 125.522 110.613 125.522 110.614C125.529 110.633 125.533 110.65 125.535 110.659L125.534 110.659C125.537 110.669 125.538 110.678 125.539 110.686C125.54 110.688 125.54 110.691 125.541 110.694C125.542 110.7 125.542 110.707 125.543 110.716L125.543 110.717C125.543 110.735 125.541 110.751 125.539 110.761C125.539 110.762 125.538 110.763 125.538 110.764L125.536 110.781L125.536 110.783L125.526 110.821C125.525 110.822 125.525 110.823 125.525 110.824C125.522 110.835 125.518 110.844 125.515 110.851C125.512 110.86 125.507 110.872 125.5 110.885L117.453 124.823Z" fill="#252422"/>
<path d="M112.322 124.336L114.591 120.307H119.492L117.132 124.336H112.322Z" fill="#008710"/>
<path d="M56.4956 80.9063L41.0356 89.3624L41.0356 72.4502L56.4956 80.9063Z" fill="#008710"/>
<path d="M85.384 92.5537H65.0906C64.323 92.5537 63.7019 91.9326 63.7019 91.165C63.7019 90.3974 64.323 89.7763 65.0906 89.7763H85.384C87.8033 89.7763 89.7698 87.8072 89.7698 85.3878V65.0967C89.7698 64.3291 90.3909 63.708 91.1585 63.708C91.9261 63.708 92.5472 64.3291 92.5472 65.0967V85.3878C92.5472 89.3396 89.3331 92.5534 85.3844 92.5534L85.384 92.5537Z" fill="#DAD7CD"/>
<path d="M35.9287 63.3879C35.1611 63.3879 34.54 62.7668 34.54 61.9992V41.7081C34.54 37.7563 37.7541 34.5425 41.7057 34.5425H61.9968C62.7644 34.5425 63.3855 35.1636 63.3855 35.9312C63.3855 36.6988 62.7644 37.3199 61.9968 37.3199H41.7057C39.2864 37.3199 37.3172 39.289 37.3172 41.7084V61.9995C37.3172 62.767 36.6961 63.3881 35.9285 63.3881L35.9287 63.3879Z" fill="#DAD7CD"/>
<path d="M61.1173 49.8692H42.6275C41.8599 49.8692 41.2388 49.2481 41.2388 48.4805C41.2388 47.7129 41.8599 47.0918 42.6275 47.0918H61.1173C61.8849 47.0918 62.506 47.7129 62.506 48.4805C62.506 49.2481 61.8849 49.8692 61.1173 49.8692Z" fill="#DAD7CD"/>
<path d="M61.1173 56.6582H42.6275C41.8599 56.6582 41.2388 56.0371 41.2388 55.2696C41.2388 54.502 41.8599 53.8809 42.6275 53.8809H61.1173C61.8849 53.8809 62.506 54.502 62.506 55.2696C62.506 56.0344 61.8849 56.6582 61.1173 56.6582Z" fill="#DAD7CD"/>
<path d="M84.4618 73.2139H65.9719C65.2043 73.2139 64.5833 72.5928 64.5833 71.8252C64.5833 71.0576 65.2043 70.4365 65.9719 70.4365H84.4647C85.2323 70.4365 85.8534 71.0576 85.8534 71.8252C85.8507 72.5928 85.2296 73.2139 84.462 73.2139H84.4618Z" fill="#DAD7CD"/>
<path d="M84.4618 80.003H65.9719C65.2043 80.003 64.5833 79.3819 64.5833 78.6143C64.5833 77.8467 65.2043 77.2256 65.9719 77.2256H84.4647C85.2323 77.2256 85.8534 77.8467 85.8534 78.6143C85.8507 79.3792 85.2296 80.003 84.462 80.003H84.4618Z" fill="#DAD7CD"/>
<path d="M88.4982 31H73.2168C69.0779 31 65.7173 34.3687 65.7173 38.507V53.7884C65.7173 57.9193 69.0778 61.2879 73.2168 61.2879H88.5005C92.6313 61.2879 96 57.9193 96 53.7884L95.9973 38.507C95.9973 34.3681 92.6313 31 88.4978 31H88.4982ZM93.2203 46.1321L85.2706 54.0818L75.9241 44.7434L68.4952 52.1723V38.5076C68.4952 35.9038 70.6135 33.7801 73.2173 33.7801H88.501C91.1048 33.7801 93.223 35.9038 93.223 38.5076L93.2203 46.1321Z" fill="#DAD7CD"/>
<path d="M85.5 36.75C86.4652 36.75 87.4061 37.0726 88.0957 37.6855C88.7714 38.2863 89.25 39.2036 89.25 40.5C89.25 41.7964 88.7714 42.7137 88.0957 43.3145C87.4061 43.9274 86.4652 44.25 85.5 44.25C84.5348 44.25 83.5939 43.9274 82.9043 43.3145C82.2286 42.7137 81.75 41.7964 81.75 40.5C81.75 39.2036 82.2286 38.2863 82.9043 37.6855C83.5939 37.0726 84.5348 36.75 85.5 36.75Z" fill="#008710" stroke="#DAD7CD" stroke-width="1.5"/>
<path d="M38.499 66.7173H53.7832C57.3679 66.7173 60.2878 69.6385 60.2881 73.2163V88.5005C60.2881 92.085 57.3697 95.0054 53.7832 95.0054H38.499C34.921 95.0051 32 92.0873 32 88.5005V73.2163C32.0003 69.6381 34.9209 66.7175 38.499 66.7173ZM44.6318 73.978C43.7413 73.4001 42.6904 73.1342 41.7568 73.6147C40.7609 74.1276 40.3799 75.2419 40.3799 76.3765V85.3374C40.3799 86.4746 40.7601 87.5914 41.7559 88.106C42.7521 88.6207 43.8821 88.284 44.8076 87.6255L44.8086 87.6245L50.3086 83.7026C51.3053 82.9921 51.9042 81.9743 51.9043 80.8579C51.9043 79.7412 51.3052 78.7225 50.3076 78.0132L44.8076 74.0972L44.6318 73.978Z" fill="#DAD7CD" stroke="#252422" stroke-width="2"/>
</g>
<defs>
<clipPath id="clip0_1730_99">
<rect width="128" height="128" fill="white"/>
</clipPath>
</defs>
</svg>
